<svg xmlns="http://www.w3.org/2000/svg" viewBox="0 0 256 256" fill="none">
  <defs>
    <linearGradient id="bg" x1="24" y1="20" x2="232" y2="236" gradientUnits="userSpaceOnUse">
      <stop offset="0" stop-color="#081225"/>
      <stop offset="0.55" stop-color="#102A4E"/>
      <stop offset="1" stop-color="#0B1730"/>
    </linearGradient>
    <linearGradient id="stroke" x1="64" y1="56" x2="192" y2="200" gradientUnits="userSpaceOnUse">
      <stop offset="0" stop-color="#9BE7FF"/>
      <stop offset="0.52" stop-color="#46CFFF"/>
      <stop offset="1" stop-color="#2C7BFF"/>
    </linearGradient>
    <radialGradient id="glow" cx="0" cy="0" r="1" gradientUnits="userSpaceOnUse" gradientTransform="translate(128 126) rotate(90) scale(108)">
      <stop offset="0" stop-color="#2BCBFF" stop-opacity="0.18"/>
      <stop offset="1" stop-color="#2BCBFF" stop-opacity="0"/>
    </radialGradient>
    <filter id="softGlow" x="35" y="38" width="186" height="186" filterUnits="userSpaceOnUse" color-interpolation-filters="sRGB">
      <feGaussianBlur stdDeviation="10"/>
    </filter>
  </defs>

  <rect width="256" height="256" rx="56" fill="url(#bg)"/>
  <circle cx="128" cy="126" r="88" fill="url(#glow)"/>

  <path d="M128 44C153.6 52.4 178.5 56.4 196 58.2V112.5C196 160.8 167.6 198.6 128 214C88.4 198.6 60 160.8 60 112.5V58.2C77.5 56.4 102.4 52.4 128 44Z" fill="#0E1C34"/>
  <path d="M128 44C153.6 52.4 178.5 56.4 196 58.2V112.5C196 160.8 167.6 198.6 128 214C88.4 198.6 60 160.8 60 112.5V58.2C77.5 56.4 102.4 52.4 128 44Z" stroke="url(#stroke)" stroke-width="8" stroke-linejoin="round"/>

  <g filter="url(#softGlow)" opacity="0.45">
    <circle cx="128" cy="126" r="36" stroke="#63D9FF" stroke-width="10"/>
  </g>

  <circle cx="128" cy="126" r="36" fill="#081225" stroke="url(#stroke)" stroke-width="10"/>
  <circle cx="128" cy="126" r="24" fill="#0E1C34" stroke="#C4F4FF" stroke-opacity="0.28" stroke-width="2"/>

  <path d="M128 106C121.9 106 117 110.9 117 117C117 121 119.1 124.5 122.3 126.4V145H133.7V126.4C136.9 124.5 139 121 139 117C139 110.9 134.1 106 128 106Z" fill="#EAFBFF"/>

  <path d="M128 86V96" stroke="#D9FAFF" stroke-width="4" stroke-linecap="round" opacity="0.95"/>
  <path d="M160 126H170" stroke="#D9FAFF" stroke-width="4" stroke-linecap="round" opacity="0.95"/>
  <path d="M128 156V166" stroke="#D9FAFF" stroke-width="4" stroke-linecap="round" opacity="0.95"/>
  <path d="M86 126H96" stroke="#D9FAFF" stroke-width="4" stroke-linecap="round" opacity="0.95"/>
</svg>
